<?xml version="1.0" encoding="UTF-8"?>
<svg width="18px" height="18px" viewBox="0 0 18 18" version="1.1" xmlns="http://www.w3.org/2000/svg" xmlns:xlink="http://www.w3.org/1999/xlink">
    <!-- Generator: Sketch 64 (93537) - https://sketch.com -->
    <title>icon/fb</title>
    <desc>Created with Sketch.</desc>
    <g id="icon/fb" stroke="none" stroke-width="1" fill="none" fill-rule="evenodd">
        <path d="M17.00625,0 L0.99375,0 C0.44475,0 0,0.44475 0,0.99375 L0,17.007 C0,17.55525 0.44475,18 0.99375,18 L9.615,18 L9.615,11.0295 L7.269,11.0295 L7.269,8.313 L9.615,8.313 L9.615,6.30975 C9.615,3.98475 11.03475,2.71875 13.10925,2.71875 C14.103,2.71875 14.9565,2.793 15.2055,2.826 L15.2055,5.256 L13.767,5.25675 C12.639,5.25675 12.42075,5.793 12.42075,6.579 L12.42075,8.31375 L15.111,8.31375 L14.76075,11.03025 L12.42075,11.03025 L12.42075,18 L17.00775,18 C17.55525,18 18,17.55525 18,17.00625 L18,0.99375 C18,0.44475 17.55525,0 17.00625,0 Z" id="Path" fill="#FFFFFF" fill-rule="nonzero"></path>
    </g>
</svg>