<?xml version="1.0" encoding="UTF-8"?>
<svg width="18px" height="16px" viewBox="0 0 18 16" version="1.1" xmlns="http://www.w3.org/2000/svg" xmlns:xlink="http://www.w3.org/1999/xlink">
    <!-- Generator: Sketch 64 (93537) - https://sketch.com -->
    <title>icon/vimeo</title>
    <desc>Created with Sketch.</desc>
    <g id="icon/vimeo" stroke="none" stroke-width="1" fill="none" fill-rule="evenodd">
        <path d="M17.15475,6.38594548 C15.32325,10.2986955 10.902,15.6251955 8.1075,15.6251955 C5.3535,15.6251955 4.95525,9.75194548 3.4515,5.84294548 C2.71125,3.91919548 2.2335,4.36094548 0.846,5.33219548 L-4.26325641e-14,4.24094548 C2.0235,2.46194548 4.0485,0.395695482 5.29275,0.280945482 C6.69375,0.146695482 7.55625,1.10444548 7.87875,3.15494548 C8.30475,5.84969548 8.90025,10.0324455 9.93975,10.0324455 C10.74975,10.0324455 12.7455,6.71444548 12.84825,5.52794548 C13.0305,3.79094548 11.571,3.73844548 10.30425,4.28069548 C12.309,-2.28480452 20.649,-1.07580452 17.15475,6.38594548 Z" id="Path" fill="#FFFFFF" fill-rule="nonzero"></path>
    </g>
</svg>